<svg width="24" height="19" viewBox="0 0 24 19" fill="none" xmlns="http://www.w3.org/2000/svg">
<path d="M23.9336 9.50391C23.9336 9.02344 23.7227 8.51953 23.3945 8.20312L15.7891 0.597656C15.4141 0.222656 14.9688 0.0351562 14.5469 0.0351562C13.5039 0.0351562 12.8125 0.75 12.8125 1.69922C12.8125 2.23828 13.0352 2.64844 13.3633 2.96484L16.0352 5.63672L18.4492 7.875L15.9297 7.73438H2.82812C1.72656 7.73438 0.988281 8.44922 0.988281 9.50391C0.988281 10.5586 1.72656 11.2617 2.82812 11.2617H15.9297L18.4609 11.1328L16.0352 13.3594L13.3633 16.0195C13.0469 16.3477 12.8125 16.7578 12.8125 17.2852C12.8125 18.2344 13.5039 18.9609 14.5469 18.9609C14.9688 18.9609 15.4023 18.7734 15.7773 18.4102L23.3945 10.793C23.7227 10.4766 23.9336 9.97266 23.9336 9.50391Z" fill="black"/>
</svg>
