<svg width="15" height="14" viewBox="0 0 15 14" fill="none" xmlns="http://www.w3.org/2000/svg">
<path d="M4.40527 10.0298C6.52197 12.1465 9.09277 13.7798 11.1948 13.7798C12.1396 13.7798 12.9673 13.4502 13.6338 12.7178C14.022 12.2856 14.2637 11.7803 14.2637 11.2822C14.2637 10.916 14.1245 10.5645 13.7803 10.3154L11.5317 8.71875C11.1875 8.48438 10.9019 8.36719 10.6382 8.36719C10.3086 8.36719 10.0083 8.55762 9.67139 8.88721L9.15137 9.3999C9.0708 9.48047 8.96826 9.51709 8.87305 9.51709C8.76318 9.51709 8.65332 9.47314 8.58008 9.43652C8.12598 9.19482 7.34961 8.52832 6.62451 7.81055C5.90674 7.09277 5.24023 6.31641 5.00586 5.8623C4.96924 5.78174 4.92529 5.6792 4.92529 5.56934C4.92529 5.47412 4.95459 5.37891 5.03516 5.29834L5.55518 4.76367C5.87744 4.42676 6.0752 4.13379 6.0752 3.79688C6.0752 3.5332 5.95068 3.24756 5.70898 2.90332L4.13428 0.684082C3.87793 0.33252 3.51904 0.178711 3.12354 0.178711C2.64014 0.178711 2.14209 0.398438 1.70996 0.815918C0.999512 1.49707 0.68457 2.33936 0.68457 3.26953C0.68457 5.37158 2.28857 7.92041 4.40527 10.0298Z" fill="white" fill-opacity="0.6"/>
</svg>
