<svg width="21" height="13" viewBox="0 0 21 13" fill="none" xmlns="http://www.w3.org/2000/svg">
<path d="M10.5063 12.9448C16.373 12.9448 20.4307 8.19873 20.4307 6.71924C20.4307 5.23242 16.3657 0.493652 10.5063 0.493652C4.71289 0.493652 0.574707 5.23242 0.574707 6.71924C0.574707 8.19873 4.71289 12.9448 10.5063 12.9448ZM10.5063 10.7988C8.22119 10.7988 6.41211 8.9458 6.40479 6.71924C6.39746 4.43408 8.22119 2.63965 10.5063 2.63965C12.7695 2.63965 14.6006 4.43408 14.6006 6.71924C14.6006 8.9458 12.7695 10.7988 10.5063 10.7988ZM10.5063 8.19141C11.3193 8.19141 11.9932 7.5249 11.9932 6.71924C11.9932 5.90625 11.3193 5.23975 10.5063 5.23975C9.68604 5.23975 9.01221 5.90625 9.01221 6.71924C9.01221 7.5249 9.68604 8.19141 10.5063 8.19141Z" fill="white" fill-opacity="0.6"/>
</svg>
